<svg width="21" height="20" viewBox="0 0 21 20" fill="none" xmlns="http://www.w3.org/2000/svg">
<path d="M17.8049 0H3.19516C1.70676 0 0.500122 1.20659 0.500122 2.69504V17.3049C0.500122 18.7933 1.70671 19.9999 3.19516 19.9999H10.4006L10.4129 12.853H8.55613C8.31483 12.853 8.11899 12.6579 8.11806 12.4166L8.10915 10.1129C8.10822 9.87025 8.30466 9.67308 8.54728 9.67308H10.4007V7.44709C10.4007 4.86384 11.9783 3.45724 14.2828 3.45724H16.1737C16.4157 3.45724 16.6118 3.65339 16.6118 3.89537V5.83789C16.6118 6.07978 16.4158 6.27587 16.174 6.27602L15.0135 6.27655C13.7603 6.27655 13.5176 6.87207 13.5176 7.74602V9.67313H16.2714C16.5338 9.67313 16.7373 9.90225 16.7064 10.1628L16.4334 12.4666C16.4072 12.687 16.2203 12.8531 15.9983 12.8531H13.5299L13.5176 20H17.805C19.2934 20 20.5 18.7934 20.5 17.305V2.69504C20.4999 1.20659 19.2933 0 17.8049 0Z" fill="#475993"/>
</svg>
