<svg width="20" height="20" viewBox="0 0 20 20" fill="none" xmlns="http://www.w3.org/2000/svg">
    <path
            fill="#4285F4"
            d="M9.81048 5.36787L12.3071 2.87123C12.4415 3.05141 12.5587 3.2219 12.6234 3.33574L11.8086 7.45432C11.7505 7.74787 11.8269 8.05199 12.0169 8.2832C12.2068 8.51441 12.4903 8.64841 12.7895 8.64841H17.6837C18.1334 8.64841 18.4634 8.96216 18.4634 9.4281V9.43419V9.44025V9.44628V9.45229V9.45828V9.46424V9.47017V9.47608V9.48197V9.48783V9.49366V9.49947V9.50525V9.51101V9.51675V9.52245V9.52814V9.5338V9.53943V9.54504V9.55063V9.55619V9.56173V9.56724V9.57273V9.57819V9.58363V9.58904V9.59443V9.5998V9.60514V9.61046V9.61576V9.62103V9.62627V9.6315V9.6367V9.64187V9.64702V9.65215V9.65726V9.66234V9.6674V9.67243V9.67744V9.68243V9.6874V9.69234V9.69726V9.70215V9.70703V9.71188V9.7167V9.72151V9.72629V9.73105V9.73578V9.7405V9.74519V9.74986V9.7545V9.75913V9.76373V9.76831V9.77286V9.7774V9.78191V9.7864V9.79087V9.79532V9.79974V9.80414V9.80852V9.81288V9.81722V9.82154V9.82583V9.8301V9.83436V9.83858V9.84279V9.84698V9.85115V9.85529V9.85942V9.86352V9.8676V9.87166V9.8757V9.87972V9.88371V9.88769V9.89165V9.89558V9.8995V9.90339V9.90727V9.91112V9.91495V9.91877V9.92256V9.92633V9.93008V9.93382V9.93753V9.94122V9.94489V9.94854V9.95217V9.95579V9.95938V9.96295V9.96651V9.97004V9.97355V9.97705V9.98052V9.98398V9.98741V9.99083V9.99423V9.99761V10.001V10.0043V10.0076V10.0109V10.0142V10.0175V10.0207V10.024V10.0272V10.0304V10.0335V10.0367V10.0398V10.0429V10.046V10.0491V10.0522V10.0552V10.0582V10.0612V10.0642V10.0672V10.0702V10.0731V10.076V10.0789V10.0818V10.0846V10.0875V10.0903V10.0931V10.0959V10.0987V10.1015V10.1042V10.1069V10.1096V10.1123V10.115V10.1177V10.1203V10.1229V10.1255V10.1281V10.1307V10.1332V10.1358V10.1383V10.1408V10.1433V10.1458V10.1482V10.1507V10.1531V10.1555V10.1579V10.1603V10.1626V10.165V10.1673V10.1696V10.1719V10.1742V10.1764V10.1787V10.1809V10.1831V10.1853V10.1875V10.1897V10.1919V10.194V10.1961V10.1982V10.2003V10.2024V10.2045V10.2065V10.2085V10.2106V10.2126V10.2146V10.2165V10.2185V10.2204V10.2224V10.2243V10.2262V10.2281V10.23V10.2318V10.2337V10.2355V10.2373V10.2391V10.2409V10.2427V10.2444V10.2462V10.2479V10.2496V10.2513V10.253V10.2547V10.2564V10.258V10.2597V10.2613V10.2629V10.2645V10.2661V10.2677V10.2692V10.2708V10.2723V10.2738V10.2753V10.2768V10.2783V10.2798V10.2812V10.2827V10.2841V10.2855V10.2869V10.2883V10.2897V10.2911V10.2924V10.2938V10.2951V10.2964V10.2977V10.299V10.3003V10.3016V10.3029V10.3041V10.3053V10.3066V10.3078V10.309V10.3102V10.3113V10.3125V10.3137V10.3148V10.316V10.3171V10.3182V10.3193V10.3204V10.3215V10.3225V10.3236V10.3246V10.3257V10.3267V10.3277V10.3287V10.3297V10.3307V10.3317V10.3326V10.3336V10.3345V10.3355V10.3364V10.3373V10.3382V10.3391V10.34V10.3408V10.3417V10.3425V10.3434V10.3442V10.345V10.3459V10.3467V10.3475V10.3482V10.349V10.3498V10.3505V10.3513V10.352V10.3528V10.3535V10.3542V10.3549V10.3556V10.3563V10.3569V10.3576V10.3583V10.3589V10.3596V10.3602V10.3608V10.3614V10.3621V10.3627V10.3632V10.3638V10.3644V10.365V10.3655V10.3661V10.3666V10.3672V10.3677V10.3682V10.3687V10.3692V10.3697V10.3702V10.3707V10.3712V10.3716V10.3721V10.3726V10.373V10.3734V10.3739V10.3743V10.3747V10.3751V10.3755V10.3759V10.3763V10.3767V10.377C18.4633 10.3767 18.4633 10.3765 18.4633 10.3765C18.4622 10.3764 18.4546 10.4398 18.4058 10.581C18.3514 10.7387 18.2628 10.9441 18.1357 11.1829C17.9595 11.5139 17.4153 12.8101 16.948 13.9369C16.7064 14.5192 16.4742 15.084 16.3025 15.503C16.2166 15.7125 16.1458 15.8857 16.0964 16.0066L16.0543 16.1097C15.9105 16.3101 15.6691 16.4367 15.4146 16.4367H8.19795C7.59955 16.4367 7.11572 15.9473 7.11572 15.3634V8.38698C7.11572 8.18094 7.19697 7.98137 7.34783 7.83051L6.64073 7.1234L7.34789 7.83046L7.34805 7.83029L7.34871 7.82963L7.35133 7.82702L7.36166 7.81669L7.40201 7.77634L7.55556 7.62279L8.10698 7.07136L9.81048 5.36787ZM3.33603 8.64841V16.4367H2.6665V8.64841H3.33603Z" stroke="#4285F4" stroke-width="2" stroke-linejoin="round"/>
</svg>
